<svg xmlns="http://www.w3.org/2000/svg" width="42.079" height="37.055" viewBox="0 0 42.079 37.055">
  <g id="left-quote" transform="translate(0.056 -7.328)">
    <path id="Path_445" data-name="Path 445" d="M16.882,14.686A2.021,2.021,0,0,0,17.9,11.974L16.238,8.482A2.027,2.027,0,0,0,13.594,7.5a23.355,23.355,0,0,0-7.323,4.746,17.713,17.713,0,0,0-4.916,7.763A42.576,42.576,0,0,0,0,31.941V42.349a2.04,2.04,0,0,0,2.034,2.034H15.357a2.04,2.04,0,0,0,2.034-2.034V29.026a2.04,2.04,0,0,0-2.034-2.034H8.984a14.294,14.294,0,0,1,2.373-8.238A12.885,12.885,0,0,1,16.882,14.686Z" transform="translate(0 0)" fill="#0054a3"/>
    <path id="Path_446" data-name="Path 446" d="M87.549,14.752a2.021,2.021,0,0,0,1.017-2.712L86.9,8.583A2.027,2.027,0,0,0,84.26,7.6a24.557,24.557,0,0,0-7.289,4.712,18.093,18.093,0,0,0-4.95,7.8,42,42,0,0,0-1.322,11.9V42.415a2.04,2.04,0,0,0,2.034,2.034H86.057a2.04,2.04,0,0,0,2.034-2.034V29.093a2.04,2.04,0,0,0-2.034-2.034H79.65a14.3,14.3,0,0,1,2.373-8.238A12.883,12.883,0,0,1,87.549,14.752Z" transform="translate(-46.732 -0.066)" fill="#0054a3"/>
    <path id="Path_667" data-name="Path 667" d="M87.549,14.752a2.021,2.021,0,0,0,1.017-2.712L86.9,8.583A2.027,2.027,0,0,0,84.26,7.6a24.557,24.557,0,0,0-7.289,4.712,18.093,18.093,0,0,0-4.95,7.8,42,42,0,0,0-1.322,11.9V42.415a2.04,2.04,0,0,0,2.034,2.034H86.057a2.04,2.04,0,0,0,2.034-2.034V29.093a2.04,2.04,0,0,0-2.034-2.034H79.65a14.3,14.3,0,0,1,2.373-8.238A12.883,12.883,0,0,1,87.549,14.752Z" transform="translate(-46.732 -0.066)" fill="#f87c58"/>
    <path id="Path_668" data-name="Path 668" d="M87.549,14.752a2.021,2.021,0,0,0,1.017-2.712L86.9,8.583A2.027,2.027,0,0,0,84.26,7.6a24.557,24.557,0,0,0-7.289,4.712,18.093,18.093,0,0,0-4.95,7.8,42,42,0,0,0-1.322,11.9V42.415a2.04,2.04,0,0,0,2.034,2.034H86.057a2.04,2.04,0,0,0,2.034-2.034V29.093a2.04,2.04,0,0,0-2.034-2.034H79.65a14.3,14.3,0,0,1,2.373-8.238A12.883,12.883,0,0,1,87.549,14.752Z" transform="translate(-70.756 -0.066)" fill="#f87c58"/>
  </g>
</svg>
